# xmcd
# 
# Track frame offsets:
#     150
#     15589
#     34664
#     53813
#     77091
#     94181
#     110766
#     122814
#     143267
#     153307
#     175074
#     198773
# 
# Disc length: 2797
# 
# Revision: 5
# Processed by: cddbd v1.5.2PL0 Copyright (c) Steve Scherf et al.
# Submitted via: fre:ac v1.1beta1pre5
# 
DISCID=8e0aeb0c
DTITLE=Animals as Leaders - Weightless
DYEAR=2011
DGENRE=Instrumental Rock
TTITLE0=An Infinite Regression
TTITLE1=Odessa
TTITLE2=Somnarium
TTITLE3=Earth Departure
TTITLE4=Isolated Incidents
TTITLE5=Do Not Go Gently
TTITLE6=New Eden
TTITLE7=Cylindrical Sea
TTITLE8=Espera
TTITLE9=To Lead You to an Overwhelming Question
TTITLE10=Weightless
TTITLE11=David
EXTD=
EXTT0=
EXTT1=
EXTT2=
EXTT3=
EXTT4=
EXTT5=
EXTT6=
EXTT7=
EXTT8=
EXTT9=
EXTT10=
EXTT11=
PLAYORDER=
